China in the 1920's. After her father's death, nineteen year old Songlian is forced to marry Chen Zuoqian, the lord of a powerful family. Fifty year old Chen has already three wives, each of them living in separate houses within the great castle. The competition between the wives is tough, as their master's attention carries power, status and privilege. Each night Chen must decide with which wife to spend the night and a red lantern is lit in front of the house of his choice. And each wife schemes and plots to make sure it's hers. However, things get out of hand...


   General
      Complete name : Raise.the.Red.Lantern.1991.720p.BluRay.x264-WiKi.mkv
      Format : Matroska
      File size : 5.51 GiB
      Duration : 2h 4mn
      Overall bit rate : 6 328 Kbps
      Encoded date : UTC 2011-10-10 21:42:03
      Writing application : mkvmerge v2.2.0 ('Turn It On Again') built on Mar  4 2008 13:20:25
      Writing library : libebml v0.7.7 + libmatroska v0.8.1
   Video #1
      ID : 1
      Format : AVC
      Format/Info : Advanced Video Codec
      Format profile : High@L4.1
      Format settings, CABAC : Yes
      Format settings, ReFrames : 8 frames
      Muxing mode : Container profile=Unknown@4.1
      Codec ID : V_MPEG4/ISO/AVC
      Duration : 2h 4mn
      Bit rate : 5 754 Kbps
      Nominal bit rate : 5 876 Kbps
      Width : 1 280 pixels
      Height : 688 pixels
      Display aspect ratio : 1.860
      Frame rate : 24.000 fps
      Resolution : 24 bits
      Colorimetry : 4:2:0
      Scan type : Progressive
      Bits/(Pixel*Frame) : 0.272
      Stream size : 5.01 GiB (91%)
      Writing library : x264 core 98 r1649 c54c47d      
   Audio #2
      ID : 2
      Format : AC-3
      Format/Info : Audio Coding 3
      Codec ID : A_AC3
      Duration : 2h 4mn
      Bit rate mode : Constant
      Bit rate : 448 Kbps
      Channel(s) : 2 channels
      Channel positions : L R
      Sampling rate : 48.0 KHz
      Stream size : 399 MiB (7%) 
      Language : Chinese
 
http://www.imdb.com/title/tt0101640/

Chinese (Mandarin) audio; English, Spanish and Portuguese subtitles